<svg xmlns="http://www.w3.org/2000/svg" width="45" height="45" viewBox="0 0 45 45"><g><g><path fill="#fff" d="M22.5 44C34.374 44 44 34.374 44 22.5S34.374 1 22.5 1 1 10.626 1 22.5 10.626 44 22.5 44z"/><path fill="none" stroke="#f1f1f1" stroke-miterlimit="50" d="M22.5 44C34.374 44 44 34.374 44 22.5S34.374 1 22.5 1 1 10.626 1 22.5 10.626 44 22.5 44z"/></g><g><g><path fill="#526374" d="M17.766 26.667c-.339 0-.614.262-.614.583 0 .322.276.583.616.583h11.156c.34 0 .615.261.615.584 0 .322-.275.583-.615.583H17.768c-1.018 0-1.846-.785-1.846-1.75 0-.718.459-1.336 1.112-1.606l-2.22-9.477h-3.199c-.34 0-.615-.261-.615-.584 0-.322.275-.583.615-.583h3.692a.61.61 0 0 1 .6.457l.44 1.876h15.038c.193 0 .375.086.491.232a.56.56 0 0 1 .1.512l-2.46 8.167a.612.612 0 0 1-.592.423H17.769h-.002zM16.62 18.5l1.641 7H28.46l2.11-7z"/></g><g><g><path fill="#667685" d="M17 31c0-1.103.869-2 1.937-2s1.937.897 1.937 2-.869 2-1.937 2S17 32.103 17 31m1.937-.667a.66.66 0 0 0-.646.672c0 .37.29.672.646.672a.66.66 0 0 0 .646-.672.66.66 0 0 0-.646-.672"/></g><g><path fill="#667685" d="M26.13 31c0-1.103.869-2 1.937-2s1.937.897 1.937 2-.869 2-1.937 2-1.937-.897-1.937-2m1.937-.667a.66.66 0 0 0-.646.672c0 .37.29.672.646.672a.66.66 0 0 0 .646-.672.66.66 0 0 0-.646-.672"/></g></g></g></g></svg>