<svg xmlns="http://www.w3.org/2000/svg" width="45" height="45" viewBox="0 0 45 45"><defs><clipPath id="pvx5a"><path d="M13 13h20v20H13z"/></clipPath></defs><g><g><path fill="#fff" d="M22.5 44C34.374 44 44 34.374 44 22.5S34.374 1 22.5 1 1 10.626 1 22.5 10.626 44 22.5 44z"/><path fill="none" stroke="#f1f1f1" stroke-miterlimit="50" d="M22.5 44C34.374 44 44 34.374 44 22.5S34.374 1 22.5 1 1 10.626 1 22.5 10.626 44 22.5 44z"/></g><g><g/><g clip-path="url(#pvx5a)"><path fill="#506273" d="M23 13c5.514 0 10 4.486 10 10s-4.486 10-10 10-10-4.486-10-10 4.486-10 10-10zm-1.542 1.016a9.13 9.13 0 0 0-5.925 3.763h2.953c.224-.44.477-.867.758-1.282a12.75 12.75 0 0 1 2.214-2.481zm1.11 9.473h-4.465a10.35 10.35 0 0 0 .954 3.94h3.51zm-7.582-4.825a9.035 9.035 0 0 0-1.092 3.94h3.331c.053-1.354.346-2.684.864-3.94zm-1.088 4.825a9.046 9.046 0 0 0 1.138 3.94h3.045a11.177 11.177 0 0 1-.864-3.94zm1.7 4.825a9.129 9.129 0 0 0 5.843 3.667 12.263 12.263 0 0 1-2.943-3.667zm6.97 0h-3.054a11.392 11.392 0 0 0 3.054 3.431zm0-9.65h-3.529a10.454 10.454 0 0 0-.936 3.94h4.465zm-.01-4.393a11.307 11.307 0 0 0-2.581 2.722c-.175.259-.338.52-.489.786h3.07zm9.558 8.333a9.038 9.038 0 0 0-1.092-3.94h-3.102c.517 1.256.81 2.586.863 3.94zm-1.648-4.825a9.13 9.13 0 0 0-5.926-3.763 12.75 12.75 0 0 1 2.214 2.481c.28.415.534.843.758 1.282zm-7.026 0h3.07c-.151-.265-.314-.527-.489-.786a11.31 11.31 0 0 0-2.58-2.722zm0 4.825h4.465a10.454 10.454 0 0 0-.936-3.94h-3.529zm0 4.825h3.51a10.35 10.35 0 0 0 .955-3.94h-4.465zm0 4.316a11.396 11.396 0 0 0 3.054-3.431h-3.054zm1.117.236a9.129 9.129 0 0 0 5.843-3.667h-2.9a12.273 12.273 0 0 1-2.943 3.667zm6.405-4.552a9.05 9.05 0 0 0 1.138-3.94h-3.32a11.174 11.174 0 0 1-.863 3.94z"/></g></g></g></svg>