<svg xmlns="http://www.w3.org/2000/svg" width="21" height="16" viewBox="0 0 21 16"><defs><clipPath id="fynoa"><path d="M0 0h21v15.474H0z"/></clipPath></defs><g><g><g/><g clip-path="url(#fynoa)"><path fill="#fff" d="M20.181 1.328c.762.948.819 2.4.819 4.506V9.64c0 2.414-.364 3.808-1.216 4.662-.83.832-2.115 1.172-4.433 1.172H5.65C.874 15.474 0 13.509 0 9.64V5.834c0-1.997 0-3.44.736-4.42C1.491.41 2.915 0 5.65 0h9.702c2.673 0 4.073.385 4.83 1.328m-6.699 6.935a.715.715 0 0 0 .364-.63.714.714 0 0 0-.365-.629L9.075 4.61a.65.65 0 0 0-.664.023.716.716 0 0 0-.326.606v4.807c0 .248.124.478.327.607a.655.655 0 0 0 .664.021l4.406-2.41"/></g></g></g></svg>