<svg xmlns="http://www.w3.org/2000/svg" width="22" height="18" viewBox="0 0 22 18"><defs><clipPath id="s61fa"><path d="M0 0h22v17.417H0z"/></clipPath></defs><g><g><g/><g clip-path="url(#s61fa)"><path fill="#fff" d="M21.128 6.779c.581 1.369.872 2.803.872 4.305 0 2.151-.577 4.143-1.731 5.974a.745.745 0 0 1-.663.359H2.394a.745.745 0 0 1-.663-.36A10.947 10.947 0 0 1 0 11.085c0-1.502.29-2.936.872-4.305.58-1.37 1.362-2.548 2.345-3.538.982-.99 2.152-1.777 3.51-2.363A10.678 10.678 0 0 1 11 0c1.49 0 2.913.293 4.272.878 1.36.585 2.53 1.373 3.512 2.363.982.99 1.764 2.168 2.344 3.538M9.888 2.047a1.53 1.53 0 0 0-.46 1.12c0 .436.154.81.46 1.12.307.308.678.463 1.112.463.434 0 .804-.155 1.11-.464.308-.309.461-.683.461-1.119 0-.437-.153-.81-.46-1.12A1.508 1.508 0 0 0 11 1.583a1.51 1.51 0 0 0-1.111.464M4.254 12.203c.307-.31.46-.683.46-1.12 0-.437-.153-.81-.46-1.119a1.506 1.506 0 0 0-1.11-.464c-.435 0-.805.154-1.112.464-.307.31-.46.682-.46 1.12 0 .436.153.81.46 1.119.307.309.677.464 1.111.464a1.51 1.51 0 0 0 1.111-.464m2.357-5.55c.307-.309.46-.68.46-1.117 0-.435-.153-.807-.46-1.115A1.51 1.51 0 0 0 5.5 3.959a1.51 1.51 0 0 0-1.111.462c-.307.308-.46.68-.46 1.115 0 .436.153.808.46 1.116.307.308.677.463 1.11.463.435 0 .805-.154 1.112-.463m6.965.114a.787.787 0 0 0-.093-.6.78.78 0 0 0-.473-.364.73.73 0 0 0-.59.08.777.777 0 0 0-.37.488l-1.243 4.725c-.491.042-.93.221-1.315.538a2.3 2.3 0 0 0-.775 1.22 2.325 2.325 0 0 0 .245 1.805c.328.569.808.935 1.44 1.1.631.165 1.23.083 1.796-.246a2.27 2.27 0 0 0 1.095-1.448 2.296 2.296 0 0 0-.074-1.447 2.348 2.348 0 0 0-.886-1.126l1.243-4.725m1.813-.114c.307.31.677.463 1.111.463a1.51 1.51 0 0 0 1.111-.463c.307-.308.46-.68.46-1.116 0-.435-.153-.807-.46-1.115a1.512 1.512 0 0 0-1.11-.462 1.51 1.51 0 0 0-1.112.462c-.307.308-.46.68-.46 1.115 0 .436.153.808.46 1.116m4.579 5.55c.307-.31.46-.682.46-1.118 0-.438-.153-.81-.46-1.12a1.505 1.505 0 0 0-1.111-.464c-.434 0-.804.154-1.111.464-.307.31-.46.682-.46 1.12 0 .436.153.81.46 1.119.307.309.677.464 1.11.464.435 0 .805-.155 1.112-.464"/></g></g></g></svg>