<svg xmlns="http://www.w3.org/2000/svg" width="23" height="25" viewBox="0 0 23 25"><defs><clipPath id="z16ja"><path d="M0 .02h11.462v11.46H0z"/></clipPath><clipPath id="z16jb"><path d="M15.36 8.68h7.614v12.355H15.36z"/></clipPath></defs><g><g><g><path fill="#fff" d="M12.458 5.748c-.025-1.14-.497-.945-.958-.945.34.223.663.534.958.945"/></g><g><path fill="#fff" d="M6.477 3.83C4 3.83 2.858 7.018 4.84 8.622c.675-1.833 2.02-3.15 3.782-3.669A2.632 2.632 0 0 0 6.477 3.83"/></g><g><g/><g clip-path="url(#z16ja)"><path fill="#fff" d="M1.562 7.701c.092.296.212.58.354.85l-.744.744c-.2.2-.2.525 0 .725l1.311 1.312a.514.514 0 0 0 .725 0l.744-.745c.111.06.235.095.35.146v-.025c0-.609.07-1.183.194-1.722a3.238 3.238 0 0 1-1.497-2.724 3.246 3.246 0 0 1 3.242-3.243c1.21 0 2.256.674 2.814 1.659a5.64 5.64 0 0 1 1.828.053 4.887 4.887 0 0 0-.316-.76l.744-.744a.51.51 0 0 0 0-.724l-1.31-1.311a.51.51 0 0 0-.724 0l-.747.745a4.796 4.796 0 0 0-.85-.353V.532A.511.511 0 0 0 7.17.02H5.313a.513.513 0 0 0-.512.512v1.052c-.296.09-.58.21-.85.353l-.744-.744a.51.51 0 0 0-.724 0l-1.312 1.31a.514.514 0 0 0 0 .725l.744.744c-.142.27-.262.554-.352.85H.512A.512.512 0 0 0 0 5.334V7.19c0 .282.229.512.512.512z"/></g></g><g><path fill="#fff" d="M17.888 18.212a2.566 2.566 0 0 0 1.284-2.235c0-1.41-1.101-2.557-2.454-2.557a2.36 2.36 0 0 0-1.293.393 9.428 9.428 0 0 1-1.045 2.61 7.233 7.233 0 0 1 3.508 1.789"/></g><g><g/><g clip-path="url(#z16jb)"><path fill="#fff" d="M22.974 14.409c0-.305-.234-.553-.52-.553h-1.07a5.46 5.46 0 0 0-.36-.916l.757-.803a.566.566 0 0 0 .153-.39.567.567 0 0 0-.153-.39L20.45 9.943a.504.504 0 0 0-.368-.162.502.502 0 0 0-.368.162l-.758.803a4.69 4.69 0 0 0-.864-.38V9.232c0-.305-.232-.552-.52-.552h-1.884a.496.496 0 0 0-.328.133c.159.614.246 1.28.246 1.99 0 .452-.034.91-.096 1.365.351-.137.724-.223 1.12-.223 1.8 0 3.265 1.554 3.265 3.464 0 1.22-.6 2.29-1.502 2.907A8.008 8.008 0 0 1 19.91 21c.056.02.114.035.172.035a.505.505 0 0 0 .368-.161l1.333-1.413a.57.57 0 0 0 .151-.39.57.57 0 0 0-.15-.391l-.76-.803c.146-.29.269-.597.36-.917h1.07a.503.503 0 0 0 .368-.162.57.57 0 0 0 .152-.39z"/></g></g><g><path fill="#fff" d="M18.616 21.768c-.867-2.536-3.16-4.28-5.807-4.518-.886.932-1.983 1.524-3.225 1.524s-2.34-.592-3.226-1.524c-2.648.237-4.94 1.982-5.808 4.518L.07 23.17c-.137.404-.071.849.179 1.195.25.346.652.552 1.08.552h16.507c.43 0 .832-.206 1.082-.552.25-.346.316-.791.178-1.195z"/></g><g><path fill="#fff" d="M5.75 10.681c0 3.17 1.931 6.569 4.312 6.569 2.382 0 4.313-3.4 4.313-6.569 0-6.568-8.625-6.581-8.625 0"/></g></g></g></svg>