<svg xmlns="http://www.w3.org/2000/svg" width="24" height="20" viewBox="0 0 24 20"><defs><clipPath id="lpvsa"><path d="M0 .14h9.958v19.864H0z"/></clipPath></defs><g><g><g><g/><g clip-path="url(#lpvsa)"><path fill="#fff" d="M9.932 18.514a.414.414 0 0 1-.032-.21c.012-.057-.025-.103-.107-.14-.084-.036-.125-.064-.125-.085 0-.02-.06-.036-.179-.046l-.178-.015H4.469a2.39 2.39 0 0 1-1.753-.73 2.39 2.39 0 0 1-.73-1.754V4.61c0-.683.243-1.267.73-1.753a2.39 2.39 0 0 1 1.753-.73h4.966c.134 0 .24-.033.319-.1a.51.51 0 0 0 .154-.303c.026-.135.042-.257.047-.365a3.765 3.765 0 0 0-.008-.41 6.821 6.821 0 0 1-.015-.311.478.478 0 0 0-.148-.35.48.48 0 0 0-.349-.147H4.47c-1.23 0-2.283.437-3.158 1.311C.437 2.326 0 3.38 0 4.61v10.925c0 1.232.437 2.284 1.311 3.158.875.875 1.928 1.312 3.158 1.312h4.966c.135 0 .24-.034.319-.101a.517.517 0 0 0 .155-.303 2.62 2.62 0 0 0 .038-.775 6.821 6.821 0 0 1-.015-.31"/></g></g><g><path fill="#fff" d="M23.711 9.797l-8.27-8.5A.923.923 0 0 0 14.757 1c-.264 0-.491.1-.684.297a.975.975 0 0 0-.29.703v4.5h-6.81c-.263 0-.49.099-.684.297A.976.976 0 0 0 6 7.5v6c0 .27.097.505.289.703.193.198.42.297.684.297h6.81V19c0 .27.097.505.29.703.193.198.42.297.684.297.264 0 .492-.1.684-.297l8.27-8.5A.972.972 0 0 0 24 10.5a.972.972 0 0 0-.289-.703"/></g></g></g></svg>