<svg xmlns="http://www.w3.org/2000/svg" width="19" height="25" viewBox="0 0 19 25"><g><g><g><path fill="#fff" d="M6.33 20.81v.024c0 1.985 1.215 3.595 2.714 3.595 1.5 0 2.715-1.61 2.715-3.595v-.024z"/></g><g><path fill="#fff" d="M18.771 17.852l-2.613-3.82V9.264c0-3.215-2.3-5.894-5.352-6.498V1.299C10.806.582 10.22 0 9.5 0c-.721 0-1.306.582-1.306 1.3v1.467c-3.051.604-5.352 3.283-5.352 6.498v4.766L.23 17.851a1.308 1.308 0 0 0-.076 1.354c.229.43.678.7 1.167.7h16.36c.489 0 .938-.27 1.167-.7.229-.43.2-.95-.076-1.353"/></g></g></g></svg>