<svg xmlns="http://www.w3.org/2000/svg" width="25" height="23" viewBox="0 0 25 23"><defs><clipPath id="afhxa"><path d="M12.01 4.01H25v18.936H12.01z"/></clipPath><clipPath id="afhxb"><path d="M0 .03h15.97v16.918H0z"/></clipPath></defs><g><g><g><g/><g clip-path="url(#afhxa)"><path fill="#fff" d="M22.01 16.622L25 13.478l-2.99-3.144.482-.507a2.334 2.334 0 0 0 0-3.18 2.074 2.074 0 0 0-1.511-.658c-.571 0-1.108.234-1.512.659l-.482.506-2.99-3.144-.882.928v1.467c1.56.39 2.725 1.87 2.725 3.629 0 1.76-1.165 3.238-2.725 3.629v4.548h-2.589l-.516.543 3.987 4.192 2.99-3.145.415.437c.834.877 2.19.877 3.024 0a2.334 2.334 0 0 0 0-3.179z"/></g></g><g><g/><g clip-path="url(#afhxb)"><path fill="#fff" d="M13.155 16.948v-4.6h.606c1.218 0 2.209-1.043 2.209-2.326 0-1.282-.99-2.325-2.209-2.325h-.606v-4.6H8.786v-.741c0-1.283-.99-2.326-2.209-2.326C5.36.03 4.37 1.073 4.37 2.356v.74H0v4.6h.607c1.068 0 1.962.804 2.165 1.867a.816.816 0 0 1 0 .919c-.203 1.062-1.097 1.866-2.165 1.866H0v4.6h4.369v-.742c0-1.282.99-2.325 2.208-2.325 1.218 0 2.209 1.043 2.209 2.325v.742z"/></g></g></g></g></svg>