<svg xmlns="http://www.w3.org/2000/svg" width="24" height="24" viewBox="0 0 24 24"><defs><clipPath id="fezsa"><path d="M0 3.41h23.98v12.604H0z"/></clipPath></defs><g><g><g><path fill="#fff" d="M0 18v2.309h7.5v2.768h-2V24h13v-.923h-2V20.31H24V18z"/></g><g><g><path fill="#fff" d="M11.993.99c2.036 0 3.843.954 4.981 2.424h1.201A7.277 7.277 0 0 0 11.993.02 7.277 7.277 0 0 0 5.81 3.414h1.201A6.287 6.287 0 0 1 11.993.99"/></g><g><g/><g clip-path="url(#fezsa)"><path fill="#fff" d="M18.173 3.41a6.814 6.814 0 0 1 1.051 3.627v.194c.755.475 1.26 1.299 1.26 2.24 0 .824-.39 1.566-1 2.055v2.55h-4.586c-.205.563-.76.97-1.409.97H11.99c-.824 0-1.499-.654-1.499-1.454 0-.805.675-1.455 1.5-1.455h1.498c.65 0 1.204.403 1.409.97h3.587v-1.072c-.24.068-.49.102-.75.102h-.749V6.804h.75c.164 0 .33.014.484.044a5.892 5.892 0 0 0-1.248-3.438H7.009A5.892 5.892 0 0 0 5.76 6.848c.155-.03.32-.044.485-.044h.75v5.333h-.75c-1.514 0-2.748-1.197-2.748-2.666 0-.941.505-1.765 1.26-2.24v-.194c0-1.329.388-2.567 1.05-3.627H0v12.604h23.98V3.41z"/></g></g></g></g></g></svg>