<svg xmlns="http://www.w3.org/2000/svg" width="18" height="23" viewBox="0 0 18 23"><defs><clipPath id="m8dka"><path d="M0 11.01h17.986v11.237H0z"/></clipPath></defs><g><g><g><path fill="#fff" d="M8.5 11c1.511 0 2.82-.542 3.889-1.611C13.458 8.319 14 7.01 14 5.499c0-1.51-.542-2.818-1.611-3.888C11.319.542 10.01 0 8.5 0 6.989 0 5.68.542 4.611 1.611 3.542 2.681 3 3.99 3 5.5c0 1.511.542 2.82 1.611 3.889C5.681 10.458 6.99 11 8.5 11"/></g><g><g/><g clip-path="url(#m8dka)"><path fill="#fff" d="M17.942 17.225c-.03-.424-.088-.886-.175-1.374-.087-.491-.2-.956-.335-1.38a6.858 6.858 0 0 0-.563-1.289 4.85 4.85 0 0 0-.849-1.115 3.739 3.739 0 0 0-1.22-.773 4.184 4.184 0 0 0-1.556-.284c-.22 0-.433.091-.844.361-.253.166-.549.359-.88.572-.282.181-.664.35-1.137.505a4.48 4.48 0 0 1-1.39.227c-.463 0-.93-.077-1.392-.227-.472-.154-.855-.324-1.137-.505-.327-.211-.623-.403-.88-.572-.41-.27-.623-.361-.843-.361a4.18 4.18 0 0 0-1.557.284c-.474.19-.884.45-1.22.773-.32.31-.606.684-.849 1.115a6.869 6.869 0 0 0-.562 1.289c-.135.424-.248.889-.335 1.38-.087.487-.146.95-.175 1.374-.029.416-.043.848-.043 1.284 0 1.134.358 2.053 1.063 2.73.697.669 1.619 1.008 2.74 1.008h10.38c1.121 0 2.043-.34 2.74-1.008.705-.677 1.063-1.595 1.063-2.73 0-.439-.015-.87-.044-1.284"/></g></g></g></g></svg>